<mxfile host="Electron" modified="2024-03-21T05:03:43.009Z" agent="Mozilla/5.0 (Windows NT 10.0; Win64; x64) AppleWebKit/537.36 (KHTML, like Gecko) draw.io/24.0.4 Chrome/120.0.6099.109 Electron/28.1.0 Safari/537.36" etag="hkVqmAFaitJNUgM2G9gg" version="24.0.4" type="device">
  <diagram name="Страница — 1" id="eAEhSKOZmVu0QQBtngn9">
    <mxGraphModel dx="1687" dy="993" grid="1" gridSize="10" guides="1" tooltips="1" connect="1" arrows="1" fold="1" page="1" pageScale="1" pageWidth="827" pageHeight="1169" math="0" shadow="0">
      <root>
        <mxCell id="0" />
        <mxCell id="1" parent="0" />
        <mxCell id="H-Uxaujs8YJfxCwx9NnW-1" value="начало" style="ellipse;whiteSpace=wrap;html=1;" vertex="1" parent="1">
          <mxGeometry x="300" width="120" height="40" as="geometry" />
        </mxCell>
        <mxCell id="H-Uxaujs8YJfxCwx9NnW-2" value="" style="endArrow=classic;html=1;rounded=0;entryX=0.5;entryY=0;entryDx=0;entryDy=0;" edge="1" parent="1" target="H-Uxaujs8YJfxCwx9NnW-5">
          <mxGeometry width="50" height="50" relative="1" as="geometry">
            <mxPoint x="359.76" y="40" as="sourcePoint" />
            <mxPoint x="360" y="360" as="targetPoint" />
          </mxGeometry>
        </mxCell>
        <mxCell id="H-Uxaujs8YJfxCwx9NnW-3" value="" style="endArrow=none;html=1;rounded=0;" edge="1" parent="1">
          <mxGeometry width="50" height="50" relative="1" as="geometry">
            <mxPoint x="360" y="200" as="sourcePoint" />
            <mxPoint x="480" y="200" as="targetPoint" />
          </mxGeometry>
        </mxCell>
        <mxCell id="H-Uxaujs8YJfxCwx9NnW-4" value="&lt;div&gt;#pragma once&lt;/div&gt;&lt;div&gt;#include &amp;lt;iostream&amp;gt;&lt;/div&gt;&lt;div&gt;#include &quot;QuickSorting.h&quot;;&lt;/div&gt;&lt;div&gt;&lt;br&gt;&lt;/div&gt;&lt;div&gt;using namespace std;&lt;/div&gt;&lt;div&gt;&lt;br&gt;&lt;/div&gt;&lt;div&gt;&lt;div&gt;void BucketSorting(int* Arr, int Lenght)&amp;nbsp;&lt;span style=&quot;background-color: initial;&quot;&gt;{&lt;/span&gt;&lt;/div&gt;&lt;/div&gt;&lt;div&gt;&lt;span style=&quot;background-color: initial;&quot;&gt;&lt;br&gt;&lt;/span&gt;&lt;/div&gt;&lt;div&gt;&lt;div&gt;int mx = Arr[0];&lt;/div&gt;&lt;div&gt;&lt;span style=&quot;white-space: normal;&quot;&gt;int mn = Arr[0];&lt;/span&gt;&lt;/div&gt;&lt;/div&gt;&lt;div&gt;&lt;span style=&quot;white-space: normal;&quot;&gt;&lt;br&gt;&lt;/span&gt;&lt;/div&gt;&lt;div&gt;int AmountOfBuckets;&lt;br&gt;&lt;/div&gt;&lt;div&gt;pair&amp;lt;int*, int&amp;gt;* BucketsAndLeghths;&lt;br&gt;&lt;/div&gt;&lt;div&gt;int CorrectBucketIndex;&lt;br&gt;&lt;/div&gt;&lt;div&gt;pair&amp;lt;int*, int&amp;gt; CorrectBucket;&lt;br&gt;&lt;/div&gt;&lt;div&gt;int index = 0;&lt;br&gt;&lt;/div&gt;" style="rounded=0;whiteSpace=wrap;html=1;" vertex="1" parent="1">
          <mxGeometry x="480" y="77" width="210" height="245" as="geometry" />
        </mxCell>
        <mxCell id="H-Uxaujs8YJfxCwx9NnW-7" style="edgeStyle=orthogonalEdgeStyle;rounded=0;orthogonalLoop=1;jettySize=auto;html=1;entryX=0.5;entryY=0;entryDx=0;entryDy=0;" edge="1" parent="1" source="H-Uxaujs8YJfxCwx9NnW-5" target="H-Uxaujs8YJfxCwx9NnW-6">
          <mxGeometry relative="1" as="geometry" />
        </mxCell>
        <mxCell id="H-Uxaujs8YJfxCwx9NnW-5" value="for (int i = 0; i &amp;lt; Lenght; i++)&amp;nbsp;" style="shape=hexagon;perimeter=hexagonPerimeter2;whiteSpace=wrap;html=1;fixedSize=1;" vertex="1" parent="1">
          <mxGeometry x="280" y="345" width="160" height="30" as="geometry" />
        </mxCell>
        <mxCell id="H-Uxaujs8YJfxCwx9NnW-6" value="if (Arr[i] &amp;gt; mx)&amp;nbsp;" style="rhombus;whiteSpace=wrap;html=1;" vertex="1" parent="1">
          <mxGeometry x="310" y="414" width="100" height="50" as="geometry" />
        </mxCell>
        <mxCell id="H-Uxaujs8YJfxCwx9NnW-8" value="" style="endArrow=none;html=1;rounded=0;entryX=0;entryY=0.5;entryDx=0;entryDy=0;" edge="1" parent="1" target="H-Uxaujs8YJfxCwx9NnW-6">
          <mxGeometry width="50" height="50" relative="1" as="geometry">
            <mxPoint x="240" y="440" as="sourcePoint" />
            <mxPoint x="290" y="390" as="targetPoint" />
          </mxGeometry>
        </mxCell>
        <mxCell id="H-Uxaujs8YJfxCwx9NnW-9" value="1" style="text;html=1;align=center;verticalAlign=middle;whiteSpace=wrap;rounded=0;" vertex="1" parent="1">
          <mxGeometry x="290" y="410" width="20" height="30" as="geometry" />
        </mxCell>
        <mxCell id="H-Uxaujs8YJfxCwx9NnW-10" value="" style="endArrow=classic;html=1;rounded=0;" edge="1" parent="1">
          <mxGeometry width="50" height="50" relative="1" as="geometry">
            <mxPoint x="240" y="440" as="sourcePoint" />
            <mxPoint x="240" y="480" as="targetPoint" />
          </mxGeometry>
        </mxCell>
        <mxCell id="H-Uxaujs8YJfxCwx9NnW-11" value="mx = Arr[i];" style="rounded=0;whiteSpace=wrap;html=1;" vertex="1" parent="1">
          <mxGeometry x="204" y="480" width="70" height="30" as="geometry" />
        </mxCell>
        <mxCell id="H-Uxaujs8YJfxCwx9NnW-13" value="1" style="text;html=1;align=center;verticalAlign=middle;whiteSpace=wrap;rounded=0;" vertex="1" parent="1">
          <mxGeometry x="340" y="390" width="20" height="30" as="geometry" />
        </mxCell>
        <mxCell id="H-Uxaujs8YJfxCwx9NnW-14" value="{" style="text;html=1;align=center;verticalAlign=middle;whiteSpace=wrap;rounded=0;" vertex="1" parent="1">
          <mxGeometry x="360" y="390" width="20" height="30" as="geometry" />
        </mxCell>
        <mxCell id="H-Uxaujs8YJfxCwx9NnW-15" value="" style="endArrow=none;html=1;rounded=0;" edge="1" parent="1">
          <mxGeometry width="50" height="50" relative="1" as="geometry">
            <mxPoint x="410" y="439" as="sourcePoint" />
            <mxPoint x="480" y="439" as="targetPoint" />
          </mxGeometry>
        </mxCell>
        <mxCell id="H-Uxaujs8YJfxCwx9NnW-16" value="0" style="text;html=1;align=center;verticalAlign=middle;whiteSpace=wrap;rounded=0;" vertex="1" parent="1">
          <mxGeometry x="404" y="410" width="20" height="30" as="geometry" />
        </mxCell>
        <mxCell id="H-Uxaujs8YJfxCwx9NnW-17" value="" style="endArrow=classic;html=1;rounded=0;entryX=0.5;entryY=0;entryDx=0;entryDy=0;" edge="1" parent="1" target="H-Uxaujs8YJfxCwx9NnW-18">
          <mxGeometry width="50" height="50" relative="1" as="geometry">
            <mxPoint x="480" y="440" as="sourcePoint" />
            <mxPoint x="480" y="480" as="targetPoint" />
          </mxGeometry>
        </mxCell>
        <mxCell id="H-Uxaujs8YJfxCwx9NnW-18" value="(Arr[i] &amp;lt; mn)&amp;nbsp;" style="rhombus;whiteSpace=wrap;html=1;" vertex="1" parent="1">
          <mxGeometry x="440" y="500" width="80" height="40" as="geometry" />
        </mxCell>
        <mxCell id="H-Uxaujs8YJfxCwx9NnW-19" value="" style="endArrow=none;html=1;rounded=0;entryX=0;entryY=0.5;entryDx=0;entryDy=0;" edge="1" parent="1" target="H-Uxaujs8YJfxCwx9NnW-18">
          <mxGeometry width="50" height="50" relative="1" as="geometry">
            <mxPoint x="360" y="520" as="sourcePoint" />
            <mxPoint x="410" y="470" as="targetPoint" />
          </mxGeometry>
        </mxCell>
        <mxCell id="H-Uxaujs8YJfxCwx9NnW-20" value="1" style="text;html=1;align=center;verticalAlign=middle;whiteSpace=wrap;rounded=0;" vertex="1" parent="1">
          <mxGeometry x="420" y="490" width="20" height="30" as="geometry" />
        </mxCell>
        <mxCell id="H-Uxaujs8YJfxCwx9NnW-21" value="" style="endArrow=classic;html=1;rounded=0;" edge="1" parent="1">
          <mxGeometry width="50" height="50" relative="1" as="geometry">
            <mxPoint x="360" y="520" as="sourcePoint" />
            <mxPoint x="360" y="560" as="targetPoint" />
          </mxGeometry>
        </mxCell>
        <mxCell id="H-Uxaujs8YJfxCwx9NnW-22" value="mn = Arr[i];" style="rounded=0;whiteSpace=wrap;html=1;" vertex="1" parent="1">
          <mxGeometry x="325" y="560" width="70" height="20" as="geometry" />
        </mxCell>
        <mxCell id="H-Uxaujs8YJfxCwx9NnW-23" value="" style="endArrow=none;html=1;rounded=0;" edge="1" parent="1">
          <mxGeometry width="50" height="50" relative="1" as="geometry">
            <mxPoint x="520" y="520" as="sourcePoint" />
            <mxPoint x="600" y="520" as="targetPoint" />
          </mxGeometry>
        </mxCell>
        <mxCell id="H-Uxaujs8YJfxCwx9NnW-24" value="0" style="text;html=1;align=center;verticalAlign=middle;whiteSpace=wrap;rounded=0;" vertex="1" parent="1">
          <mxGeometry x="520" y="490" width="20" height="30" as="geometry" />
        </mxCell>
        <mxCell id="H-Uxaujs8YJfxCwx9NnW-26" value="" style="endArrow=none;html=1;rounded=0;entryX=0.5;entryY=1;entryDx=0;entryDy=0;" edge="1" parent="1" target="H-Uxaujs8YJfxCwx9NnW-22">
          <mxGeometry width="50" height="50" relative="1" as="geometry">
            <mxPoint x="360" y="640" as="sourcePoint" />
            <mxPoint x="410" y="590" as="targetPoint" />
          </mxGeometry>
        </mxCell>
        <mxCell id="H-Uxaujs8YJfxCwx9NnW-27" value="" style="endArrow=none;html=1;rounded=0;" edge="1" parent="1">
          <mxGeometry width="50" height="50" relative="1" as="geometry">
            <mxPoint x="600" y="640" as="sourcePoint" />
            <mxPoint x="600" y="520" as="targetPoint" />
          </mxGeometry>
        </mxCell>
        <mxCell id="H-Uxaujs8YJfxCwx9NnW-28" value="" style="endArrow=none;html=1;rounded=0;" edge="1" parent="1">
          <mxGeometry width="50" height="50" relative="1" as="geometry">
            <mxPoint x="360" y="640" as="sourcePoint" />
            <mxPoint x="600" y="640" as="targetPoint" />
          </mxGeometry>
        </mxCell>
        <mxCell id="H-Uxaujs8YJfxCwx9NnW-29" value="{" style="text;html=1;align=center;verticalAlign=middle;whiteSpace=wrap;rounded=0;" vertex="1" parent="1">
          <mxGeometry x="360" y="530" width="20" height="30" as="geometry" />
        </mxCell>
        <mxCell id="H-Uxaujs8YJfxCwx9NnW-30" value="}" style="text;html=1;align=center;verticalAlign=middle;whiteSpace=wrap;rounded=0;" vertex="1" parent="1">
          <mxGeometry x="360" y="590" width="16" height="30" as="geometry" />
        </mxCell>
        <mxCell id="H-Uxaujs8YJfxCwx9NnW-31" value="" style="endArrow=none;html=1;rounded=0;" edge="1" parent="1">
          <mxGeometry width="50" height="50" relative="1" as="geometry">
            <mxPoint x="480" y="680" as="sourcePoint" />
            <mxPoint x="480" y="640" as="targetPoint" />
          </mxGeometry>
        </mxCell>
        <mxCell id="H-Uxaujs8YJfxCwx9NnW-32" value="" style="endArrow=none;html=1;rounded=0;entryX=0.5;entryY=1;entryDx=0;entryDy=0;" edge="1" parent="1" target="H-Uxaujs8YJfxCwx9NnW-11">
          <mxGeometry width="50" height="50" relative="1" as="geometry">
            <mxPoint x="240" y="680" as="sourcePoint" />
            <mxPoint x="290" y="630" as="targetPoint" />
          </mxGeometry>
        </mxCell>
        <mxCell id="H-Uxaujs8YJfxCwx9NnW-33" value="{" style="text;html=1;align=center;verticalAlign=middle;whiteSpace=wrap;rounded=0;" vertex="1" parent="1">
          <mxGeometry x="240" y="450" width="20" height="30" as="geometry" />
        </mxCell>
        <mxCell id="H-Uxaujs8YJfxCwx9NnW-34" value="}" style="text;html=1;align=center;verticalAlign=middle;whiteSpace=wrap;rounded=0;" vertex="1" parent="1">
          <mxGeometry x="240" y="510" width="16" height="30" as="geometry" />
        </mxCell>
        <mxCell id="H-Uxaujs8YJfxCwx9NnW-35" value="" style="endArrow=none;html=1;rounded=0;" edge="1" parent="1">
          <mxGeometry width="50" height="50" relative="1" as="geometry">
            <mxPoint x="240" y="680" as="sourcePoint" />
            <mxPoint x="480" y="680" as="targetPoint" />
          </mxGeometry>
        </mxCell>
        <mxCell id="H-Uxaujs8YJfxCwx9NnW-36" value="" style="endArrow=none;html=1;rounded=0;" edge="1" parent="1">
          <mxGeometry width="50" height="50" relative="1" as="geometry">
            <mxPoint x="360" y="720" as="sourcePoint" />
            <mxPoint x="360" y="680" as="targetPoint" />
          </mxGeometry>
        </mxCell>
        <mxCell id="H-Uxaujs8YJfxCwx9NnW-37" value="" style="endArrow=none;html=1;rounded=0;" edge="1" parent="1">
          <mxGeometry width="50" height="50" relative="1" as="geometry">
            <mxPoint x="160" y="720" as="sourcePoint" />
            <mxPoint x="360" y="720" as="targetPoint" />
          </mxGeometry>
        </mxCell>
        <mxCell id="H-Uxaujs8YJfxCwx9NnW-38" value="}" style="text;html=1;align=center;verticalAlign=middle;whiteSpace=wrap;rounded=0;" vertex="1" parent="1">
          <mxGeometry x="360" y="680" width="16" height="30" as="geometry" />
        </mxCell>
        <mxCell id="H-Uxaujs8YJfxCwx9NnW-39" value="" style="endArrow=none;html=1;rounded=0;" edge="1" parent="1">
          <mxGeometry width="50" height="50" relative="1" as="geometry">
            <mxPoint x="160" y="720" as="sourcePoint" />
            <mxPoint x="160" y="360" as="targetPoint" />
          </mxGeometry>
        </mxCell>
        <mxCell id="H-Uxaujs8YJfxCwx9NnW-40" value="" style="endArrow=classic;html=1;rounded=0;entryX=0;entryY=0.5;entryDx=0;entryDy=0;" edge="1" parent="1" target="H-Uxaujs8YJfxCwx9NnW-5">
          <mxGeometry width="50" height="50" relative="1" as="geometry">
            <mxPoint x="160" y="360" as="sourcePoint" />
            <mxPoint x="210" y="310" as="targetPoint" />
          </mxGeometry>
        </mxCell>
        <mxCell id="H-Uxaujs8YJfxCwx9NnW-41" value="" style="endArrow=none;html=1;rounded=0;" edge="1" parent="1">
          <mxGeometry width="50" height="50" relative="1" as="geometry">
            <mxPoint x="440" y="360" as="sourcePoint" />
            <mxPoint x="880" y="360" as="targetPoint" />
          </mxGeometry>
        </mxCell>
        <mxCell id="H-Uxaujs8YJfxCwx9NnW-42" value="0" style="text;html=1;align=center;verticalAlign=middle;whiteSpace=wrap;rounded=0;" vertex="1" parent="1">
          <mxGeometry x="440" y="330" width="20" height="30" as="geometry" />
        </mxCell>
        <mxCell id="H-Uxaujs8YJfxCwx9NnW-43" value="" style="endArrow=classic;html=1;rounded=0;entryX=0.5;entryY=0;entryDx=0;entryDy=0;" edge="1" parent="1" target="H-Uxaujs8YJfxCwx9NnW-44">
          <mxGeometry width="50" height="50" relative="1" as="geometry">
            <mxPoint x="880" y="360" as="sourcePoint" />
            <mxPoint x="720" y="400" as="targetPoint" />
          </mxGeometry>
        </mxCell>
        <mxCell id="H-Uxaujs8YJfxCwx9NnW-46" style="edgeStyle=orthogonalEdgeStyle;rounded=0;orthogonalLoop=1;jettySize=auto;html=1;entryX=0.5;entryY=0;entryDx=0;entryDy=0;" edge="1" parent="1" source="H-Uxaujs8YJfxCwx9NnW-44" target="H-Uxaujs8YJfxCwx9NnW-45">
          <mxGeometry relative="1" as="geometry" />
        </mxCell>
        <mxCell id="H-Uxaujs8YJfxCwx9NnW-44" value="AmountOfBuckets = abs(mx / 10 - mn / 10 + 1);" style="shape=process;whiteSpace=wrap;html=1;backgroundOutline=1;" vertex="1" parent="1">
          <mxGeometry x="780" y="395" width="200" height="60" as="geometry" />
        </mxCell>
        <mxCell id="H-Uxaujs8YJfxCwx9NnW-48" style="edgeStyle=orthogonalEdgeStyle;rounded=0;orthogonalLoop=1;jettySize=auto;html=1;entryX=0.5;entryY=0;entryDx=0;entryDy=0;" edge="1" parent="1" source="H-Uxaujs8YJfxCwx9NnW-45" target="H-Uxaujs8YJfxCwx9NnW-47">
          <mxGeometry relative="1" as="geometry" />
        </mxCell>
        <mxCell id="H-Uxaujs8YJfxCwx9NnW-45" value="BucketsAndLeghths = new pair&amp;lt;int*, int&amp;gt;[AmountOfBuckets];" style="rounded=0;whiteSpace=wrap;html=1;" vertex="1" parent="1">
          <mxGeometry x="810" y="490" width="140" height="60" as="geometry" />
        </mxCell>
        <mxCell id="H-Uxaujs8YJfxCwx9NnW-51" style="edgeStyle=orthogonalEdgeStyle;rounded=0;orthogonalLoop=1;jettySize=auto;html=1;entryX=0.5;entryY=0;entryDx=0;entryDy=0;" edge="1" parent="1" source="H-Uxaujs8YJfxCwx9NnW-47" target="H-Uxaujs8YJfxCwx9NnW-50">
          <mxGeometry relative="1" as="geometry" />
        </mxCell>
        <mxCell id="H-Uxaujs8YJfxCwx9NnW-47" value="for (int i = 0; i &amp;lt; AmountOfBuckets; i++)" style="shape=hexagon;perimeter=hexagonPerimeter2;whiteSpace=wrap;html=1;fixedSize=1;" vertex="1" parent="1">
          <mxGeometry x="800" y="617" width="160" height="45" as="geometry" />
        </mxCell>
        <mxCell id="H-Uxaujs8YJfxCwx9NnW-55" style="edgeStyle=orthogonalEdgeStyle;rounded=0;orthogonalLoop=1;jettySize=auto;html=1;entryX=0.5;entryY=0;entryDx=0;entryDy=0;" edge="1" parent="1" source="H-Uxaujs8YJfxCwx9NnW-50" target="H-Uxaujs8YJfxCwx9NnW-54">
          <mxGeometry relative="1" as="geometry" />
        </mxCell>
        <mxCell id="H-Uxaujs8YJfxCwx9NnW-50" value="BucketsAndLeghths[i].first = new int[Lenght];" style="rounded=0;whiteSpace=wrap;html=1;" vertex="1" parent="1">
          <mxGeometry x="795" y="710" width="170" height="60" as="geometry" />
        </mxCell>
        <mxCell id="H-Uxaujs8YJfxCwx9NnW-52" value="1" style="text;html=1;align=center;verticalAlign=middle;whiteSpace=wrap;rounded=0;" vertex="1" parent="1">
          <mxGeometry x="860" y="680" width="20" height="30" as="geometry" />
        </mxCell>
        <mxCell id="H-Uxaujs8YJfxCwx9NnW-53" value="{" style="text;html=1;align=center;verticalAlign=middle;whiteSpace=wrap;rounded=0;" vertex="1" parent="1">
          <mxGeometry x="880" y="680" width="20" height="30" as="geometry" />
        </mxCell>
        <mxCell id="H-Uxaujs8YJfxCwx9NnW-57" style="edgeStyle=orthogonalEdgeStyle;rounded=0;orthogonalLoop=1;jettySize=auto;html=1;entryX=0.5;entryY=0;entryDx=0;entryDy=0;" edge="1" parent="1" source="H-Uxaujs8YJfxCwx9NnW-54" target="H-Uxaujs8YJfxCwx9NnW-56">
          <mxGeometry relative="1" as="geometry" />
        </mxCell>
        <mxCell id="H-Uxaujs8YJfxCwx9NnW-54" value="for (int j = 0; j &amp;lt; Lenght; j++)" style="shape=hexagon;perimeter=hexagonPerimeter2;whiteSpace=wrap;html=1;fixedSize=1;" vertex="1" parent="1">
          <mxGeometry x="820" y="820" width="120" height="40" as="geometry" />
        </mxCell>
        <mxCell id="H-Uxaujs8YJfxCwx9NnW-56" value="BucketsAndLeghths[i].first[j] = 0;" style="rounded=0;whiteSpace=wrap;html=1;" vertex="1" parent="1">
          <mxGeometry x="785" y="890" width="190" height="20" as="geometry" />
        </mxCell>
        <mxCell id="H-Uxaujs8YJfxCwx9NnW-58" value="1" style="text;html=1;align=center;verticalAlign=middle;whiteSpace=wrap;rounded=0;" vertex="1" parent="1">
          <mxGeometry x="860" y="860" width="20" height="30" as="geometry" />
        </mxCell>
        <mxCell id="H-Uxaujs8YJfxCwx9NnW-59" value="{" style="text;html=1;align=center;verticalAlign=middle;whiteSpace=wrap;rounded=0;" vertex="1" parent="1">
          <mxGeometry x="880" y="860" width="20" height="30" as="geometry" />
        </mxCell>
        <mxCell id="H-Uxaujs8YJfxCwx9NnW-60" value="" style="endArrow=none;html=1;rounded=0;entryX=0.5;entryY=1;entryDx=0;entryDy=0;" edge="1" parent="1" target="H-Uxaujs8YJfxCwx9NnW-56">
          <mxGeometry width="50" height="50" relative="1" as="geometry">
            <mxPoint x="880" y="960" as="sourcePoint" />
            <mxPoint x="930" y="910" as="targetPoint" />
          </mxGeometry>
        </mxCell>
        <mxCell id="H-Uxaujs8YJfxCwx9NnW-61" value="" style="endArrow=none;html=1;rounded=0;" edge="1" parent="1">
          <mxGeometry width="50" height="50" relative="1" as="geometry">
            <mxPoint x="760" y="960" as="sourcePoint" />
            <mxPoint x="880" y="960" as="targetPoint" />
          </mxGeometry>
        </mxCell>
        <mxCell id="H-Uxaujs8YJfxCwx9NnW-62" value="" style="endArrow=none;html=1;rounded=0;" edge="1" parent="1">
          <mxGeometry width="50" height="50" relative="1" as="geometry">
            <mxPoint x="760" y="960" as="sourcePoint" />
            <mxPoint x="760" y="840" as="targetPoint" />
          </mxGeometry>
        </mxCell>
        <mxCell id="H-Uxaujs8YJfxCwx9NnW-63" value="" style="endArrow=classic;html=1;rounded=0;entryX=0;entryY=0.5;entryDx=0;entryDy=0;" edge="1" parent="1" target="H-Uxaujs8YJfxCwx9NnW-54">
          <mxGeometry width="50" height="50" relative="1" as="geometry">
            <mxPoint x="760" y="840" as="sourcePoint" />
            <mxPoint x="810" y="790" as="targetPoint" />
          </mxGeometry>
        </mxCell>
        <mxCell id="H-Uxaujs8YJfxCwx9NnW-64" value="" style="endArrow=none;html=1;rounded=0;" edge="1" parent="1">
          <mxGeometry width="50" height="50" relative="1" as="geometry">
            <mxPoint x="940" y="840" as="sourcePoint" />
            <mxPoint x="1160" y="840" as="targetPoint" />
          </mxGeometry>
        </mxCell>
        <mxCell id="H-Uxaujs8YJfxCwx9NnW-65" value="0" style="text;html=1;align=center;verticalAlign=middle;whiteSpace=wrap;rounded=0;" vertex="1" parent="1">
          <mxGeometry x="940" y="810" width="10" height="30" as="geometry" />
        </mxCell>
        <mxCell id="H-Uxaujs8YJfxCwx9NnW-66" value="" style="endArrow=classic;html=1;rounded=0;entryX=0.5;entryY=0;entryDx=0;entryDy=0;" edge="1" parent="1" target="H-Uxaujs8YJfxCwx9NnW-67">
          <mxGeometry width="50" height="50" relative="1" as="geometry">
            <mxPoint x="1160" y="840" as="sourcePoint" />
            <mxPoint x="1160" y="880" as="targetPoint" />
          </mxGeometry>
        </mxCell>
        <mxCell id="H-Uxaujs8YJfxCwx9NnW-67" value="BucketsAndLeghths[i].second = 0;" style="rounded=0;whiteSpace=wrap;html=1;" vertex="1" parent="1">
          <mxGeometry x="1060" y="880" width="200" height="20" as="geometry" />
        </mxCell>
        <mxCell id="H-Uxaujs8YJfxCwx9NnW-68" value="" style="endArrow=none;html=1;rounded=0;entryX=0.5;entryY=1;entryDx=0;entryDy=0;" edge="1" parent="1" target="H-Uxaujs8YJfxCwx9NnW-67">
          <mxGeometry width="50" height="50" relative="1" as="geometry">
            <mxPoint x="1160" y="1000" as="sourcePoint" />
            <mxPoint x="1210" y="950" as="targetPoint" />
          </mxGeometry>
        </mxCell>
        <mxCell id="H-Uxaujs8YJfxCwx9NnW-69" value="}" style="text;html=1;align=center;verticalAlign=middle;whiteSpace=wrap;rounded=0;" vertex="1" parent="1">
          <mxGeometry x="1160" y="900" width="20" height="30" as="geometry" />
        </mxCell>
        <mxCell id="H-Uxaujs8YJfxCwx9NnW-70" value="" style="endArrow=none;html=1;rounded=0;" edge="1" parent="1">
          <mxGeometry width="50" height="50" relative="1" as="geometry">
            <mxPoint x="720" y="1000" as="sourcePoint" />
            <mxPoint x="1160" y="1000" as="targetPoint" />
          </mxGeometry>
        </mxCell>
        <mxCell id="H-Uxaujs8YJfxCwx9NnW-71" value="}" style="text;html=1;align=center;verticalAlign=middle;whiteSpace=wrap;rounded=0;" vertex="1" parent="1">
          <mxGeometry x="880" y="910" width="20" height="30" as="geometry" />
        </mxCell>
        <mxCell id="H-Uxaujs8YJfxCwx9NnW-72" value="" style="endArrow=none;html=1;rounded=0;" edge="1" parent="1">
          <mxGeometry width="50" height="50" relative="1" as="geometry">
            <mxPoint x="720" y="1000" as="sourcePoint" />
            <mxPoint x="720" y="640" as="targetPoint" />
          </mxGeometry>
        </mxCell>
        <mxCell id="H-Uxaujs8YJfxCwx9NnW-73" value="" style="endArrow=classic;html=1;rounded=0;entryX=0;entryY=0.5;entryDx=0;entryDy=0;" edge="1" parent="1" target="H-Uxaujs8YJfxCwx9NnW-47">
          <mxGeometry width="50" height="50" relative="1" as="geometry">
            <mxPoint x="720" y="640" as="sourcePoint" />
            <mxPoint x="770" y="590" as="targetPoint" />
          </mxGeometry>
        </mxCell>
        <mxCell id="H-Uxaujs8YJfxCwx9NnW-74" value="" style="endArrow=none;html=1;rounded=0;" edge="1" parent="1">
          <mxGeometry width="50" height="50" relative="1" as="geometry">
            <mxPoint x="960" y="640" as="sourcePoint" />
            <mxPoint x="1440" y="640" as="targetPoint" />
          </mxGeometry>
        </mxCell>
        <mxCell id="H-Uxaujs8YJfxCwx9NnW-75" value="0" style="text;html=1;align=center;verticalAlign=middle;whiteSpace=wrap;rounded=0;" vertex="1" parent="1">
          <mxGeometry x="960" y="610" width="20" height="30" as="geometry" />
        </mxCell>
        <mxCell id="H-Uxaujs8YJfxCwx9NnW-80" style="edgeStyle=orthogonalEdgeStyle;rounded=0;orthogonalLoop=1;jettySize=auto;html=1;entryX=0.5;entryY=0;entryDx=0;entryDy=0;" edge="1" parent="1" source="H-Uxaujs8YJfxCwx9NnW-76" target="H-Uxaujs8YJfxCwx9NnW-79">
          <mxGeometry relative="1" as="geometry" />
        </mxCell>
        <mxCell id="H-Uxaujs8YJfxCwx9NnW-76" value="for (int i = 0; i &amp;lt; Lenght; i++)" style="shape=hexagon;perimeter=hexagonPerimeter2;whiteSpace=wrap;html=1;fixedSize=1;" vertex="1" parent="1">
          <mxGeometry x="1380" y="700" width="120" height="40" as="geometry" />
        </mxCell>
        <mxCell id="H-Uxaujs8YJfxCwx9NnW-77" value="" style="endArrow=classic;html=1;rounded=0;entryX=0.5;entryY=0;entryDx=0;entryDy=0;" edge="1" parent="1" target="H-Uxaujs8YJfxCwx9NnW-76">
          <mxGeometry width="50" height="50" relative="1" as="geometry">
            <mxPoint x="1439.76" y="640" as="sourcePoint" />
            <mxPoint x="1439.76" y="710" as="targetPoint" />
          </mxGeometry>
        </mxCell>
        <mxCell id="H-Uxaujs8YJfxCwx9NnW-84" style="edgeStyle=orthogonalEdgeStyle;rounded=0;orthogonalLoop=1;jettySize=auto;html=1;entryX=0.5;entryY=0;entryDx=0;entryDy=0;" edge="1" parent="1" source="H-Uxaujs8YJfxCwx9NnW-79" target="H-Uxaujs8YJfxCwx9NnW-83">
          <mxGeometry relative="1" as="geometry" />
        </mxCell>
        <mxCell id="H-Uxaujs8YJfxCwx9NnW-79" value="CorrectBucketIndex = abs(Arr[i] / 10 - mn / 10);" style="shape=process;whiteSpace=wrap;html=1;backgroundOutline=1;" vertex="1" parent="1">
          <mxGeometry x="1350" y="780" width="180" height="40" as="geometry" />
        </mxCell>
        <mxCell id="H-Uxaujs8YJfxCwx9NnW-81" value="1" style="text;html=1;align=center;verticalAlign=middle;whiteSpace=wrap;rounded=0;" vertex="1" parent="1">
          <mxGeometry x="1420" y="750" width="20" height="30" as="geometry" />
        </mxCell>
        <mxCell id="H-Uxaujs8YJfxCwx9NnW-82" value="{" style="text;html=1;align=center;verticalAlign=middle;whiteSpace=wrap;rounded=0;" vertex="1" parent="1">
          <mxGeometry x="1440" y="750" width="20" height="30" as="geometry" />
        </mxCell>
        <mxCell id="H-Uxaujs8YJfxCwx9NnW-86" style="edgeStyle=orthogonalEdgeStyle;rounded=0;orthogonalLoop=1;jettySize=auto;html=1;entryX=0.5;entryY=0;entryDx=0;entryDy=0;" edge="1" parent="1" source="H-Uxaujs8YJfxCwx9NnW-83" target="H-Uxaujs8YJfxCwx9NnW-85">
          <mxGeometry relative="1" as="geometry" />
        </mxCell>
        <mxCell id="H-Uxaujs8YJfxCwx9NnW-83" value="CorrectBucket = BucketsAndLeghths[CorrectBucketIndex];" style="rounded=0;whiteSpace=wrap;html=1;" vertex="1" parent="1">
          <mxGeometry x="1320" y="845" width="240" height="35" as="geometry" />
        </mxCell>
        <mxCell id="H-Uxaujs8YJfxCwx9NnW-88" style="edgeStyle=orthogonalEdgeStyle;rounded=0;orthogonalLoop=1;jettySize=auto;html=1;entryX=0.5;entryY=0;entryDx=0;entryDy=0;" edge="1" parent="1" source="H-Uxaujs8YJfxCwx9NnW-85" target="H-Uxaujs8YJfxCwx9NnW-87">
          <mxGeometry relative="1" as="geometry" />
        </mxCell>
        <mxCell id="H-Uxaujs8YJfxCwx9NnW-85" value="CorrectBucket.first[CorrectBucket.second] = Arr[i];" style="rounded=0;whiteSpace=wrap;html=1;" vertex="1" parent="1">
          <mxGeometry x="1305" y="900" width="270" height="30" as="geometry" />
        </mxCell>
        <mxCell id="H-Uxaujs8YJfxCwx9NnW-90" style="edgeStyle=orthogonalEdgeStyle;rounded=0;orthogonalLoop=1;jettySize=auto;html=1;entryX=0.5;entryY=0;entryDx=0;entryDy=0;" edge="1" parent="1" source="H-Uxaujs8YJfxCwx9NnW-87" target="H-Uxaujs8YJfxCwx9NnW-89">
          <mxGeometry relative="1" as="geometry" />
        </mxCell>
        <mxCell id="H-Uxaujs8YJfxCwx9NnW-87" value="CorrectBucket.second++;&amp;nbsp;" style="rounded=0;whiteSpace=wrap;html=1;" vertex="1" parent="1">
          <mxGeometry x="1365" y="960" width="150" height="20" as="geometry" />
        </mxCell>
        <mxCell id="H-Uxaujs8YJfxCwx9NnW-89" value="BucketsAndLeghths[CorrectBucketIndex] = CorrectBucket;" style="rounded=0;whiteSpace=wrap;html=1;" vertex="1" parent="1">
          <mxGeometry x="1305" y="1010" width="270" height="40" as="geometry" />
        </mxCell>
        <mxCell id="H-Uxaujs8YJfxCwx9NnW-91" value="" style="endArrow=none;html=1;rounded=0;entryX=0.5;entryY=1;entryDx=0;entryDy=0;" edge="1" parent="1" target="H-Uxaujs8YJfxCwx9NnW-89">
          <mxGeometry width="50" height="50" relative="1" as="geometry">
            <mxPoint x="1440" y="1120" as="sourcePoint" />
            <mxPoint x="1490" y="1070" as="targetPoint" />
          </mxGeometry>
        </mxCell>
        <mxCell id="H-Uxaujs8YJfxCwx9NnW-92" value="" style="endArrow=none;html=1;rounded=0;" edge="1" parent="1">
          <mxGeometry width="50" height="50" relative="1" as="geometry">
            <mxPoint x="1280" y="1120" as="sourcePoint" />
            <mxPoint x="1440" y="1120" as="targetPoint" />
          </mxGeometry>
        </mxCell>
        <mxCell id="H-Uxaujs8YJfxCwx9NnW-93" value="" style="endArrow=none;html=1;rounded=0;" edge="1" parent="1">
          <mxGeometry width="50" height="50" relative="1" as="geometry">
            <mxPoint x="1280" y="1120" as="sourcePoint" />
            <mxPoint x="1280" y="720" as="targetPoint" />
          </mxGeometry>
        </mxCell>
        <mxCell id="H-Uxaujs8YJfxCwx9NnW-94" value="" style="endArrow=classic;html=1;rounded=0;entryX=0;entryY=0.5;entryDx=0;entryDy=0;" edge="1" parent="1" target="H-Uxaujs8YJfxCwx9NnW-76">
          <mxGeometry width="50" height="50" relative="1" as="geometry">
            <mxPoint x="1280" y="720" as="sourcePoint" />
            <mxPoint x="1330" y="670" as="targetPoint" />
          </mxGeometry>
        </mxCell>
        <mxCell id="H-Uxaujs8YJfxCwx9NnW-95" value="}" style="text;html=1;align=center;verticalAlign=middle;whiteSpace=wrap;rounded=0;" vertex="1" parent="1">
          <mxGeometry x="1440" y="1050" width="20" height="30" as="geometry" />
        </mxCell>
        <mxCell id="H-Uxaujs8YJfxCwx9NnW-96" value="" style="endArrow=none;html=1;rounded=0;" edge="1" parent="1">
          <mxGeometry width="50" height="50" relative="1" as="geometry">
            <mxPoint x="1500" y="720" as="sourcePoint" />
            <mxPoint x="1760" y="720" as="targetPoint" />
          </mxGeometry>
        </mxCell>
        <mxCell id="H-Uxaujs8YJfxCwx9NnW-97" value="0" style="text;html=1;align=center;verticalAlign=middle;whiteSpace=wrap;rounded=0;" vertex="1" parent="1">
          <mxGeometry x="1500" y="690" width="20" height="30" as="geometry" />
        </mxCell>
        <mxCell id="H-Uxaujs8YJfxCwx9NnW-98" value="for (int i = 0; i &amp;lt; AmountOfBuckets; i++)" style="shape=hexagon;perimeter=hexagonPerimeter2;whiteSpace=wrap;html=1;fixedSize=1;" vertex="1" parent="1">
          <mxGeometry x="1680" y="780" width="160" height="40" as="geometry" />
        </mxCell>
        <mxCell id="H-Uxaujs8YJfxCwx9NnW-99" value="" style="endArrow=classic;html=1;rounded=0;entryX=0.5;entryY=0;entryDx=0;entryDy=0;" edge="1" parent="1" target="H-Uxaujs8YJfxCwx9NnW-98">
          <mxGeometry width="50" height="50" relative="1" as="geometry">
            <mxPoint x="1759.76" y="720" as="sourcePoint" />
            <mxPoint x="1759.76" y="770" as="targetPoint" />
          </mxGeometry>
        </mxCell>
        <mxCell id="H-Uxaujs8YJfxCwx9NnW-100" value="HoareQuickSorting(BucketsAndLeghths[i].first, 0, BucketsAndLeghths[i].second - 1);" style="shape=process;whiteSpace=wrap;html=1;backgroundOutline=1;" vertex="1" parent="1">
          <mxGeometry x="1615" y="870" width="310" height="60" as="geometry" />
        </mxCell>
        <mxCell id="H-Uxaujs8YJfxCwx9NnW-102" style="edgeStyle=orthogonalEdgeStyle;rounded=0;orthogonalLoop=1;jettySize=auto;html=1;entryX=0.467;entryY=0;entryDx=0;entryDy=0;entryPerimeter=0;" edge="1" parent="1" source="H-Uxaujs8YJfxCwx9NnW-98" target="H-Uxaujs8YJfxCwx9NnW-100">
          <mxGeometry relative="1" as="geometry" />
        </mxCell>
        <mxCell id="H-Uxaujs8YJfxCwx9NnW-103" value="" style="endArrow=none;html=1;rounded=0;entryX=0.465;entryY=0.983;entryDx=0;entryDy=0;entryPerimeter=0;" edge="1" parent="1" target="H-Uxaujs8YJfxCwx9NnW-100">
          <mxGeometry width="50" height="50" relative="1" as="geometry">
            <mxPoint x="1760" y="1000" as="sourcePoint" />
            <mxPoint x="1810" y="950" as="targetPoint" />
          </mxGeometry>
        </mxCell>
        <mxCell id="H-Uxaujs8YJfxCwx9NnW-104" value="" style="endArrow=none;html=1;rounded=0;" edge="1" parent="1">
          <mxGeometry width="50" height="50" relative="1" as="geometry">
            <mxPoint x="1600" y="1000" as="sourcePoint" />
            <mxPoint x="1760" y="1000" as="targetPoint" />
          </mxGeometry>
        </mxCell>
        <mxCell id="H-Uxaujs8YJfxCwx9NnW-105" value="" style="endArrow=none;html=1;rounded=0;" edge="1" parent="1">
          <mxGeometry width="50" height="50" relative="1" as="geometry">
            <mxPoint x="1600" y="1000" as="sourcePoint" />
            <mxPoint x="1600" y="800" as="targetPoint" />
          </mxGeometry>
        </mxCell>
        <mxCell id="H-Uxaujs8YJfxCwx9NnW-106" value="" style="endArrow=classic;html=1;rounded=0;entryX=0;entryY=0.5;entryDx=0;entryDy=0;" edge="1" parent="1" target="H-Uxaujs8YJfxCwx9NnW-98">
          <mxGeometry width="50" height="50" relative="1" as="geometry">
            <mxPoint x="1600" y="800" as="sourcePoint" />
            <mxPoint x="1650" y="750" as="targetPoint" />
          </mxGeometry>
        </mxCell>
        <mxCell id="H-Uxaujs8YJfxCwx9NnW-107" value="1" style="text;html=1;align=center;verticalAlign=middle;whiteSpace=wrap;rounded=0;" vertex="1" parent="1">
          <mxGeometry x="1740" y="840" width="20" height="30" as="geometry" />
        </mxCell>
        <mxCell id="H-Uxaujs8YJfxCwx9NnW-108" value="{" style="text;html=1;align=center;verticalAlign=middle;whiteSpace=wrap;rounded=0;" vertex="1" parent="1">
          <mxGeometry x="1760" y="840" width="20" height="30" as="geometry" />
        </mxCell>
        <mxCell id="H-Uxaujs8YJfxCwx9NnW-109" value="}" style="text;html=1;align=center;verticalAlign=middle;whiteSpace=wrap;rounded=0;" vertex="1" parent="1">
          <mxGeometry x="1760" y="930" width="20" height="30" as="geometry" />
        </mxCell>
        <mxCell id="H-Uxaujs8YJfxCwx9NnW-110" value="" style="endArrow=none;html=1;rounded=0;" edge="1" parent="1">
          <mxGeometry width="50" height="50" relative="1" as="geometry">
            <mxPoint x="1840" y="800" as="sourcePoint" />
            <mxPoint x="2200" y="800" as="targetPoint" />
          </mxGeometry>
        </mxCell>
        <mxCell id="H-Uxaujs8YJfxCwx9NnW-111" value="0" style="text;html=1;align=center;verticalAlign=middle;whiteSpace=wrap;rounded=0;" vertex="1" parent="1">
          <mxGeometry x="1840" y="770" width="10" height="30" as="geometry" />
        </mxCell>
        <mxCell id="H-Uxaujs8YJfxCwx9NnW-115" style="edgeStyle=orthogonalEdgeStyle;rounded=0;orthogonalLoop=1;jettySize=auto;html=1;entryX=0.5;entryY=0;entryDx=0;entryDy=0;" edge="1" parent="1" source="H-Uxaujs8YJfxCwx9NnW-112" target="H-Uxaujs8YJfxCwx9NnW-114">
          <mxGeometry relative="1" as="geometry" />
        </mxCell>
        <mxCell id="H-Uxaujs8YJfxCwx9NnW-112" value="for (int i = 0; i &amp;lt; AmountOfBuckets; i++)" style="shape=hexagon;perimeter=hexagonPerimeter2;whiteSpace=wrap;html=1;fixedSize=1;" vertex="1" parent="1">
          <mxGeometry x="2140" y="857" width="120" height="45" as="geometry" />
        </mxCell>
        <mxCell id="H-Uxaujs8YJfxCwx9NnW-113" value="" style="endArrow=classic;html=1;rounded=0;entryX=0.5;entryY=0;entryDx=0;entryDy=0;" edge="1" parent="1" target="H-Uxaujs8YJfxCwx9NnW-112">
          <mxGeometry width="50" height="50" relative="1" as="geometry">
            <mxPoint x="2199.76" y="800" as="sourcePoint" />
            <mxPoint x="2200" y="850" as="targetPoint" />
          </mxGeometry>
        </mxCell>
        <mxCell id="H-Uxaujs8YJfxCwx9NnW-119" style="edgeStyle=orthogonalEdgeStyle;rounded=0;orthogonalLoop=1;jettySize=auto;html=1;entryX=0.5;entryY=0;entryDx=0;entryDy=0;" edge="1" parent="1" source="H-Uxaujs8YJfxCwx9NnW-114" target="H-Uxaujs8YJfxCwx9NnW-118">
          <mxGeometry relative="1" as="geometry" />
        </mxCell>
        <mxCell id="H-Uxaujs8YJfxCwx9NnW-114" value="for (int j = 0; j &amp;lt; BucketsAndLeghths[i].second; j++)&amp;nbsp;" style="shape=hexagon;perimeter=hexagonPerimeter2;whiteSpace=wrap;html=1;fixedSize=1;" vertex="1" parent="1">
          <mxGeometry x="2105" y="935" width="190" height="50" as="geometry" />
        </mxCell>
        <mxCell id="H-Uxaujs8YJfxCwx9NnW-116" value="1" style="text;html=1;align=center;verticalAlign=middle;whiteSpace=wrap;rounded=0;" vertex="1" parent="1">
          <mxGeometry x="2180" y="905" width="20" height="30" as="geometry" />
        </mxCell>
        <mxCell id="H-Uxaujs8YJfxCwx9NnW-117" value="{" style="text;html=1;align=center;verticalAlign=middle;whiteSpace=wrap;rounded=0;" vertex="1" parent="1">
          <mxGeometry x="2200" y="905" width="20" height="30" as="geometry" />
        </mxCell>
        <mxCell id="H-Uxaujs8YJfxCwx9NnW-123" style="edgeStyle=orthogonalEdgeStyle;rounded=0;orthogonalLoop=1;jettySize=auto;html=1;entryX=0.5;entryY=0;entryDx=0;entryDy=0;" edge="1" parent="1" source="H-Uxaujs8YJfxCwx9NnW-118" target="H-Uxaujs8YJfxCwx9NnW-122">
          <mxGeometry relative="1" as="geometry" />
        </mxCell>
        <mxCell id="H-Uxaujs8YJfxCwx9NnW-118" value="Arr[index] = BucketsAndLeghths[i].first[j];" style="rounded=0;whiteSpace=wrap;html=1;" vertex="1" parent="1">
          <mxGeometry x="2115" y="1030" width="170" height="40" as="geometry" />
        </mxCell>
        <mxCell id="H-Uxaujs8YJfxCwx9NnW-120" value="1" style="text;html=1;align=center;verticalAlign=middle;whiteSpace=wrap;rounded=0;" vertex="1" parent="1">
          <mxGeometry x="2180" y="1000" width="20" height="30" as="geometry" />
        </mxCell>
        <mxCell id="H-Uxaujs8YJfxCwx9NnW-121" value="{" style="text;html=1;align=center;verticalAlign=middle;whiteSpace=wrap;rounded=0;" vertex="1" parent="1">
          <mxGeometry x="2200" y="1000" width="20" height="30" as="geometry" />
        </mxCell>
        <mxCell id="H-Uxaujs8YJfxCwx9NnW-122" value="index++;" style="rounded=0;whiteSpace=wrap;html=1;" vertex="1" parent="1">
          <mxGeometry x="2170" y="1090" width="60" height="20" as="geometry" />
        </mxCell>
        <mxCell id="H-Uxaujs8YJfxCwx9NnW-124" value="" style="endArrow=none;html=1;rounded=0;entryX=0.5;entryY=1;entryDx=0;entryDy=0;" edge="1" parent="1" target="H-Uxaujs8YJfxCwx9NnW-122">
          <mxGeometry width="50" height="50" relative="1" as="geometry">
            <mxPoint x="2200" y="1160" as="sourcePoint" />
            <mxPoint x="2250" y="1110" as="targetPoint" />
          </mxGeometry>
        </mxCell>
        <mxCell id="H-Uxaujs8YJfxCwx9NnW-126" value="" style="endArrow=none;html=1;rounded=0;" edge="1" parent="1">
          <mxGeometry width="50" height="50" relative="1" as="geometry">
            <mxPoint x="2080" y="1160" as="sourcePoint" />
            <mxPoint x="2200" y="1160" as="targetPoint" />
          </mxGeometry>
        </mxCell>
        <mxCell id="H-Uxaujs8YJfxCwx9NnW-127" value="" style="endArrow=none;html=1;rounded=0;" edge="1" parent="1">
          <mxGeometry width="50" height="50" relative="1" as="geometry">
            <mxPoint x="2080" y="1160" as="sourcePoint" />
            <mxPoint x="2080" y="960" as="targetPoint" />
          </mxGeometry>
        </mxCell>
        <mxCell id="H-Uxaujs8YJfxCwx9NnW-129" value="}" style="text;html=1;align=center;verticalAlign=middle;whiteSpace=wrap;rounded=0;" vertex="1" parent="1">
          <mxGeometry x="2200" y="1110" width="20" height="30" as="geometry" />
        </mxCell>
        <mxCell id="H-Uxaujs8YJfxCwx9NnW-130" value="" style="endArrow=classic;html=1;rounded=0;entryX=0;entryY=0.5;entryDx=0;entryDy=0;" edge="1" parent="1" target="H-Uxaujs8YJfxCwx9NnW-114">
          <mxGeometry width="50" height="50" relative="1" as="geometry">
            <mxPoint x="2080" y="960" as="sourcePoint" />
            <mxPoint x="2130" y="910" as="targetPoint" />
          </mxGeometry>
        </mxCell>
        <mxCell id="H-Uxaujs8YJfxCwx9NnW-131" value="" style="endArrow=none;html=1;rounded=0;" edge="1" parent="1">
          <mxGeometry width="50" height="50" relative="1" as="geometry">
            <mxPoint x="2295" y="960" as="sourcePoint" />
            <mxPoint x="2400" y="960" as="targetPoint" />
          </mxGeometry>
        </mxCell>
        <mxCell id="H-Uxaujs8YJfxCwx9NnW-132" value="0" style="text;html=1;align=center;verticalAlign=middle;whiteSpace=wrap;rounded=0;" vertex="1" parent="1">
          <mxGeometry x="2295" y="930" width="20" height="30" as="geometry" />
        </mxCell>
        <mxCell id="H-Uxaujs8YJfxCwx9NnW-133" value="" style="endArrow=none;html=1;rounded=0;" edge="1" parent="1">
          <mxGeometry width="50" height="50" relative="1" as="geometry">
            <mxPoint x="2400" y="1200" as="sourcePoint" />
            <mxPoint x="2400" y="960" as="targetPoint" />
          </mxGeometry>
        </mxCell>
        <mxCell id="H-Uxaujs8YJfxCwx9NnW-134" value="" style="endArrow=none;html=1;rounded=0;" edge="1" parent="1">
          <mxGeometry width="50" height="50" relative="1" as="geometry">
            <mxPoint x="2040" y="1200" as="sourcePoint" />
            <mxPoint x="2400" y="1200" as="targetPoint" />
          </mxGeometry>
        </mxCell>
        <mxCell id="H-Uxaujs8YJfxCwx9NnW-136" value="" style="endArrow=none;html=1;rounded=0;" edge="1" parent="1">
          <mxGeometry width="50" height="50" relative="1" as="geometry">
            <mxPoint x="2040" y="1200" as="sourcePoint" />
            <mxPoint x="2040" y="880" as="targetPoint" />
          </mxGeometry>
        </mxCell>
        <mxCell id="H-Uxaujs8YJfxCwx9NnW-137" value="" style="endArrow=classic;html=1;rounded=0;entryX=0;entryY=0.5;entryDx=0;entryDy=0;" edge="1" parent="1" target="H-Uxaujs8YJfxCwx9NnW-112">
          <mxGeometry width="50" height="50" relative="1" as="geometry">
            <mxPoint x="2040" y="880" as="sourcePoint" />
            <mxPoint x="2090" y="830" as="targetPoint" />
          </mxGeometry>
        </mxCell>
        <mxCell id="H-Uxaujs8YJfxCwx9NnW-138" value="}" style="text;html=1;align=center;verticalAlign=middle;whiteSpace=wrap;rounded=0;" vertex="1" parent="1">
          <mxGeometry x="2390" y="960" width="10" height="30" as="geometry" />
        </mxCell>
        <mxCell id="H-Uxaujs8YJfxCwx9NnW-139" value="" style="endArrow=none;html=1;rounded=0;" edge="1" parent="1">
          <mxGeometry width="50" height="50" relative="1" as="geometry">
            <mxPoint x="2260" y="880" as="sourcePoint" />
            <mxPoint x="2560" y="880" as="targetPoint" />
          </mxGeometry>
        </mxCell>
        <mxCell id="H-Uxaujs8YJfxCwx9NnW-140" value="0" style="text;html=1;align=center;verticalAlign=middle;whiteSpace=wrap;rounded=0;" vertex="1" parent="1">
          <mxGeometry x="2260" y="850" width="20" height="30" as="geometry" />
        </mxCell>
        <mxCell id="H-Uxaujs8YJfxCwx9NnW-141" value="" style="endArrow=classic;html=1;rounded=0;entryX=0.5;entryY=0;entryDx=0;entryDy=0;" edge="1" parent="1" target="H-Uxaujs8YJfxCwx9NnW-142">
          <mxGeometry width="50" height="50" relative="1" as="geometry">
            <mxPoint x="2560" y="880" as="sourcePoint" />
            <mxPoint x="2560" y="920" as="targetPoint" />
          </mxGeometry>
        </mxCell>
        <mxCell id="H-Uxaujs8YJfxCwx9NnW-144" style="edgeStyle=orthogonalEdgeStyle;rounded=0;orthogonalLoop=1;jettySize=auto;html=1;entryX=0.5;entryY=0;entryDx=0;entryDy=0;" edge="1" parent="1" source="H-Uxaujs8YJfxCwx9NnW-142" target="H-Uxaujs8YJfxCwx9NnW-143">
          <mxGeometry relative="1" as="geometry" />
        </mxCell>
        <mxCell id="H-Uxaujs8YJfxCwx9NnW-142" value="for (int i = 0; i &amp;lt; AmountOfBuckets; i++)" style="shape=hexagon;perimeter=hexagonPerimeter2;whiteSpace=wrap;html=1;fixedSize=1;" vertex="1" parent="1">
          <mxGeometry x="2500" y="935" width="120" height="50" as="geometry" />
        </mxCell>
        <mxCell id="H-Uxaujs8YJfxCwx9NnW-143" value="delete[] BucketsAndLeghths[i].first;" style="rounded=0;whiteSpace=wrap;html=1;" vertex="1" parent="1">
          <mxGeometry x="2481" y="1020" width="160" height="30" as="geometry" />
        </mxCell>
        <mxCell id="H-Uxaujs8YJfxCwx9NnW-145" value="1" style="text;html=1;align=center;verticalAlign=middle;whiteSpace=wrap;rounded=0;" vertex="1" parent="1">
          <mxGeometry x="2540" y="990" width="20" height="30" as="geometry" />
        </mxCell>
        <mxCell id="H-Uxaujs8YJfxCwx9NnW-146" value="{" style="text;html=1;align=center;verticalAlign=middle;whiteSpace=wrap;rounded=0;" vertex="1" parent="1">
          <mxGeometry x="2560" y="990" width="20" height="30" as="geometry" />
        </mxCell>
        <mxCell id="H-Uxaujs8YJfxCwx9NnW-147" value="" style="endArrow=none;html=1;rounded=0;entryX=0.489;entryY=1.004;entryDx=0;entryDy=0;entryPerimeter=0;" edge="1" parent="1" target="H-Uxaujs8YJfxCwx9NnW-143">
          <mxGeometry width="50" height="50" relative="1" as="geometry">
            <mxPoint x="2560" y="1080" as="sourcePoint" />
            <mxPoint x="2610" y="1030" as="targetPoint" />
          </mxGeometry>
        </mxCell>
        <mxCell id="H-Uxaujs8YJfxCwx9NnW-148" value="" style="endArrow=none;html=1;rounded=0;" edge="1" parent="1">
          <mxGeometry width="50" height="50" relative="1" as="geometry">
            <mxPoint x="2440" y="1080" as="sourcePoint" />
            <mxPoint x="2560" y="1080" as="targetPoint" />
          </mxGeometry>
        </mxCell>
        <mxCell id="H-Uxaujs8YJfxCwx9NnW-149" value="" style="endArrow=none;html=1;rounded=0;" edge="1" parent="1">
          <mxGeometry width="50" height="50" relative="1" as="geometry">
            <mxPoint x="2440" y="1080" as="sourcePoint" />
            <mxPoint x="2440" y="960" as="targetPoint" />
          </mxGeometry>
        </mxCell>
        <mxCell id="H-Uxaujs8YJfxCwx9NnW-150" value="" style="endArrow=classic;html=1;rounded=0;entryX=0;entryY=0.5;entryDx=0;entryDy=0;" edge="1" parent="1" target="H-Uxaujs8YJfxCwx9NnW-142">
          <mxGeometry width="50" height="50" relative="1" as="geometry">
            <mxPoint x="2440" y="960" as="sourcePoint" />
            <mxPoint x="2490" y="910" as="targetPoint" />
          </mxGeometry>
        </mxCell>
        <mxCell id="H-Uxaujs8YJfxCwx9NnW-151" value="}" style="text;html=1;align=center;verticalAlign=middle;whiteSpace=wrap;rounded=0;" vertex="1" parent="1">
          <mxGeometry x="2560" y="1050" width="20" height="30" as="geometry" />
        </mxCell>
        <mxCell id="H-Uxaujs8YJfxCwx9NnW-152" value="" style="endArrow=none;html=1;rounded=0;" edge="1" parent="1">
          <mxGeometry width="50" height="50" relative="1" as="geometry">
            <mxPoint x="2620" y="960" as="sourcePoint" />
            <mxPoint x="2720" y="960" as="targetPoint" />
          </mxGeometry>
        </mxCell>
        <mxCell id="H-Uxaujs8YJfxCwx9NnW-153" value="0" style="text;html=1;align=center;verticalAlign=middle;whiteSpace=wrap;rounded=0;" vertex="1" parent="1">
          <mxGeometry x="2620" y="930" width="20" height="30" as="geometry" />
        </mxCell>
        <mxCell id="H-Uxaujs8YJfxCwx9NnW-154" value="" style="endArrow=classic;html=1;rounded=0;entryX=0.5;entryY=0;entryDx=0;entryDy=0;" edge="1" parent="1" target="H-Uxaujs8YJfxCwx9NnW-155">
          <mxGeometry width="50" height="50" relative="1" as="geometry">
            <mxPoint x="2720" y="960" as="sourcePoint" />
            <mxPoint x="2720" y="980" as="targetPoint" />
          </mxGeometry>
        </mxCell>
        <mxCell id="H-Uxaujs8YJfxCwx9NnW-158" style="edgeStyle=orthogonalEdgeStyle;rounded=0;orthogonalLoop=1;jettySize=auto;html=1;entryX=0.5;entryY=0;entryDx=0;entryDy=0;" edge="1" parent="1" source="H-Uxaujs8YJfxCwx9NnW-155" target="H-Uxaujs8YJfxCwx9NnW-157">
          <mxGeometry relative="1" as="geometry" />
        </mxCell>
        <mxCell id="H-Uxaujs8YJfxCwx9NnW-155" value="delete[] BucketsAndLeghths;" style="rounded=0;whiteSpace=wrap;html=1;" vertex="1" parent="1">
          <mxGeometry x="2660" y="1000" width="120" height="30" as="geometry" />
        </mxCell>
        <mxCell id="H-Uxaujs8YJfxCwx9NnW-157" value="конец" style="ellipse;whiteSpace=wrap;html=1;" vertex="1" parent="1">
          <mxGeometry x="2660" y="1060" width="120" height="30" as="geometry" />
        </mxCell>
        <mxCell id="H-Uxaujs8YJfxCwx9NnW-160" value="}" style="text;html=1;align=center;verticalAlign=middle;whiteSpace=wrap;rounded=0;" vertex="1" parent="1">
          <mxGeometry x="2720" y="1090" width="20" height="30" as="geometry" />
        </mxCell>
      </root>
    </mxGraphModel>
  </diagram>
</mxfile>
